<mxfile host="65bd71144e" modified="2020-10-16T18:44:39.238Z" agent="5.0 (Windows NT 10.0; Win64; x64) AppleWebKit/537.36 (KHTML, like Gecko) Code/1.50.0 Chrome/83.0.4103.122 Electron/9.2.1 Safari/537.36" etag="wG2uW2jF5X_rRl8aP_gn" version="13.6.5">
    <diagram id="Q5-1dw1sx1-oS17BZKFC" name="Page-1">
        <mxGraphModel dx="991" dy="575" grid="1" gridSize="10" guides="1" tooltips="1" connect="1" arrows="1" fold="1" page="1" pageScale="1" pageWidth="850" pageHeight="1100" math="0" shadow="0">
            <root>
                <mxCell id="0"/>
                <mxCell id="1" parent="0"/>
                <mxCell id="E4TGa1IMgX80uwDILv57-2" value="Trello API" style="rounded=0;whiteSpace=wrap;html=1;fillColor=#d5e8d4;strokeColor=#82b366;" parent="1" vertex="1">
                    <mxGeometry x="175" y="160" width="80" height="60" as="geometry"/>
                </mxCell>
                <mxCell id="E4TGa1IMgX80uwDILv57-4" value="Todolist App&lt;br&gt;-&lt;br&gt;allows users to track tasks to be completed, and view completed tasks" style="whiteSpace=wrap;html=1;aspect=fixed;fillColor=#dae8fc;strokeColor=#6c8ebf;" parent="1" vertex="1">
                    <mxGeometry x="155" y="360" width="140" height="140" as="geometry"/>
                </mxCell>
                <mxCell id="E4TGa1IMgX80uwDILv57-6" value="User" style="shape=umlActor;verticalLabelPosition=bottom;verticalAlign=top;html=1;outlineConnect=0;" parent="1" vertex="1">
                    <mxGeometry x="107.5" y="760" width="50" height="90" as="geometry"/>
                </mxCell>
                <mxCell id="E4TGa1IMgX80uwDILv57-8" value="Browser" style="rounded=0;whiteSpace=wrap;html=1;" parent="1" vertex="1">
                    <mxGeometry x="410" y="580" width="120" height="60" as="geometry"/>
                </mxCell>
                <mxCell id="E4TGa1IMgX80uwDILv57-9" value="Trello&lt;br&gt;-&lt;br&gt;Where the persistent state of the app is stored.&lt;br&gt;Only one Trello board is used in production" style="rounded=0;whiteSpace=wrap;html=1;labelPadding=25px;perimeterSpacing=6;" parent="1" vertex="1">
                    <mxGeometry x="132.5" y="30" width="165" height="130" as="geometry"/>
                </mxCell>
                <mxCell id="E4TGa1IMgX80uwDILv57-12" value="Person wishing to track ToDo items" style="text;html=1;strokeColor=none;fillColor=none;align=center;verticalAlign=middle;whiteSpace=wrap;rounded=0;" parent="1" vertex="1">
                    <mxGeometry x="167.5" y="760" width="120" height="90" as="geometry"/>
                </mxCell>
                <mxCell id="E4TGa1IMgX80uwDILv57-13" value="" style="rounded=0;whiteSpace=wrap;html=1;fillColor=none;" parent="1" vertex="1">
                    <mxGeometry x="82.5" y="750" width="215" height="130" as="geometry"/>
                </mxCell>
                <mxCell id="E4TGa1IMgX80uwDILv57-14" value="Browser" style="rounded=0;whiteSpace=wrap;html=1;fillColor=none;" parent="1" vertex="1">
                    <mxGeometry x="117.5" y="580" width="120" height="60" as="geometry"/>
                </mxCell>
                <mxCell id="E4TGa1IMgX80uwDILv57-16" value="User" style="shape=umlActor;verticalLabelPosition=bottom;verticalAlign=top;html=1;outlineConnect=0;" parent="1" vertex="1">
                    <mxGeometry x="412.5" y="770" width="50" height="90" as="geometry"/>
                </mxCell>
                <mxCell id="E4TGa1IMgX80uwDILv57-17" value="Person wishing to track ToDo items" style="text;html=1;strokeColor=none;fillColor=none;align=center;verticalAlign=middle;whiteSpace=wrap;rounded=0;" parent="1" vertex="1">
                    <mxGeometry x="472.5" y="770" width="120" height="90" as="geometry"/>
                </mxCell>
                <mxCell id="E4TGa1IMgX80uwDILv57-18" value="" style="rounded=0;whiteSpace=wrap;html=1;fillColor=none;" parent="1" vertex="1">
                    <mxGeometry x="387.5" y="750" width="215" height="130" as="geometry"/>
                </mxCell>
                <mxCell id="E4TGa1IMgX80uwDILv57-20" value="" style="endArrow=classic;startArrow=classic;html=1;entryX=0.107;entryY=1;entryDx=0;entryDy=0;entryPerimeter=0;exitX=0.5;exitY=0;exitDx=0;exitDy=0;" parent="1" source="E4TGa1IMgX80uwDILv57-14" target="E4TGa1IMgX80uwDILv57-4" edge="1">
                    <mxGeometry width="50" height="50" relative="1" as="geometry">
                        <mxPoint x="207.5" y="560" as="sourcePoint"/>
                        <mxPoint x="477.5" y="530" as="targetPoint"/>
                    </mxGeometry>
                </mxCell>
                <mxCell id="E4TGa1IMgX80uwDILv57-21" value="" style="endArrow=classic;startArrow=classic;html=1;exitX=0.5;exitY=0;exitDx=0;exitDy=0;entryX=0.75;entryY=1;entryDx=0;entryDy=0;" parent="1" source="E4TGa1IMgX80uwDILv57-8" target="E4TGa1IMgX80uwDILv57-4" edge="1">
                    <mxGeometry width="50" height="50" relative="1" as="geometry">
                        <mxPoint x="540" y="580" as="sourcePoint"/>
                        <mxPoint x="590" y="530" as="targetPoint"/>
                    </mxGeometry>
                </mxCell>
                <mxCell id="E4TGa1IMgX80uwDILv57-23" value="" style="endArrow=classic;startArrow=classic;html=1;entryX=0.25;entryY=1;entryDx=0;entryDy=0;exitX=0.364;exitY=0;exitDx=0;exitDy=0;exitPerimeter=0;" parent="1" source="E4TGa1IMgX80uwDILv57-4" target="E4TGa1IMgX80uwDILv57-2" edge="1">
                    <mxGeometry width="50" height="50" relative="1" as="geometry">
                        <mxPoint x="200" y="280" as="sourcePoint"/>
                        <mxPoint x="250" y="230" as="targetPoint"/>
                    </mxGeometry>
                </mxCell>
                <mxCell id="E4TGa1IMgX80uwDILv57-24" value="App communicates with Trello via the API, sending requests and recieving responses" style="text;html=1;strokeColor=none;fillColor=none;align=center;verticalAlign=middle;whiteSpace=wrap;rounded=0;" parent="1" vertex="1">
                    <mxGeometry x="215" y="250" width="210" height="90" as="geometry"/>
                </mxCell>
                <mxCell id="E4TGa1IMgX80uwDILv57-26" value="&lt;h1&gt;Browser(s)&lt;/h1&gt;&lt;p&gt;Send requests to the Todolist app, recieve responses, and display them to the user&lt;/p&gt;" style="text;html=1;strokeColor=none;fillColor=none;spacing=5;spacingTop=-20;whiteSpace=wrap;overflow=hidden;rounded=0;" parent="1" vertex="1">
                    <mxGeometry x="610" y="540" width="190" height="120" as="geometry"/>
                </mxCell>
                <mxCell id="E4TGa1IMgX80uwDILv57-27" value="" style="endArrow=classic;startArrow=classic;html=1;exitX=0.5;exitY=0;exitDx=0;exitDy=0;entryX=0.604;entryY=1.017;entryDx=0;entryDy=0;entryPerimeter=0;" parent="1" source="E4TGa1IMgX80uwDILv57-13" target="E4TGa1IMgX80uwDILv57-14" edge="1">
                    <mxGeometry width="50" height="50" relative="1" as="geometry">
                        <mxPoint x="140" y="690" as="sourcePoint"/>
                        <mxPoint x="200" y="660" as="targetPoint"/>
                    </mxGeometry>
                </mxCell>
                <mxCell id="E4TGa1IMgX80uwDILv57-28" value="" style="endArrow=classic;startArrow=classic;html=1;exitX=0.365;exitY=-0.008;exitDx=0;exitDy=0;exitPerimeter=0;entryX=0.5;entryY=1;entryDx=0;entryDy=0;" parent="1" source="E4TGa1IMgX80uwDILv57-18" target="E4TGa1IMgX80uwDILv57-8" edge="1">
                    <mxGeometry width="50" height="50" relative="1" as="geometry">
                        <mxPoint x="425" y="690" as="sourcePoint"/>
                        <mxPoint x="480" y="650" as="targetPoint"/>
                    </mxGeometry>
                </mxCell>
                <mxCell id="E4TGa1IMgX80uwDILv57-29" value="" style="endArrow=classic;startArrow=classic;html=1;entryX=0;entryY=1;entryDx=0;entryDy=0;exitX=0.963;exitY=-0.008;exitDx=0;exitDy=0;exitPerimeter=0;" parent="1" source="E4TGa1IMgX80uwDILv57-13" target="E4TGa1IMgX80uwDILv57-8" edge="1">
                    <mxGeometry width="50" height="50" relative="1" as="geometry">
                        <mxPoint x="320" y="680" as="sourcePoint"/>
                        <mxPoint x="335" y="650" as="targetPoint"/>
                    </mxGeometry>
                </mxCell>
                <mxCell id="E4TGa1IMgX80uwDILv57-31" value="&lt;h1&gt;User(s)&lt;/h1&gt;&lt;p&gt;A User can view the todolist via multiple browsers, and multiple users could access the todolist, through different browsers or the same browser&lt;/p&gt;" style="text;html=1;strokeColor=none;fillColor=none;spacing=5;spacingTop=-20;whiteSpace=wrap;overflow=hidden;rounded=0;" parent="1" vertex="1">
                    <mxGeometry x="630" y="700" width="190" height="120" as="geometry"/>
                </mxCell>
            </root>
        </mxGraphModel>
    </diagram>
</mxfile>